%TF.GenerationSoftware,KiCad,Pcbnew,(6.0.0-0)*%
%TF.CreationDate,2022-04-11T21:26:13+01:00*%
%TF.ProjectId,baby10,62616279-3130-42e6-9b69-6361645f7063,rev?*%
%TF.SameCoordinates,Original*%
%TF.FileFunction,Soldermask,Bot*%
%TF.FilePolarity,Negative*%
%FSLAX46Y46*%
G04 Gerber Fmt 4.6, Leading zero omitted, Abs format (unit mm)*
G04 Created by KiCad (PCBNEW (6.0.0-0)) date 2022-04-11 21:26:13*
%MOMM*%
%LPD*%
G01*
G04 APERTURE LIST*
G04 Aperture macros list*
%AMRoundRect*
0 Rectangle with rounded corners*
0 $1 Rounding radius*
0 $2 $3 $4 $5 $6 $7 $8 $9 X,Y pos of 4 corners*
0 Add a 4 corners polygon primitive as box body*
4,1,4,$2,$3,$4,$5,$6,$7,$8,$9,$2,$3,0*
0 Add four circle primitives for the rounded corners*
1,1,$1+$1,$2,$3*
1,1,$1+$1,$4,$5*
1,1,$1+$1,$6,$7*
1,1,$1+$1,$8,$9*
0 Add four rect primitives between the rounded corners*
20,1,$1+$1,$2,$3,$4,$5,0*
20,1,$1+$1,$4,$5,$6,$7,0*
20,1,$1+$1,$6,$7,$8,$9,0*
20,1,$1+$1,$8,$9,$2,$3,0*%
G04 Aperture macros list end*
%ADD10R,1.800000X1.800000*%
%ADD11C,1.800000*%
%ADD12O,3.100000X2.300000*%
%ADD13RoundRect,0.650000X0.650000X0.650000X-0.650000X0.650000X-0.650000X-0.650000X0.650000X-0.650000X0*%
%ADD14R,1.600000X1.600000*%
%ADD15O,1.600000X1.600000*%
%ADD16C,3.240000*%
%ADD17C,1.600000*%
%ADD18R,2.600000X2.600000*%
%ADD19C,2.600000*%
%ADD20R,1.700000X1.700000*%
%ADD21O,1.700000X1.700000*%
%ADD22C,3.000000*%
%ADD23O,1.300000X2.500000*%
G04 APERTURE END LIST*
D10*
%TO.C,D13*%
X120015000Y-78232000D03*
D11*
X120015000Y-80772000D03*
%TD*%
D12*
%TO.C,J5*%
X101854000Y-33558000D03*
D13*
X101854000Y-44958000D03*
X101854000Y-36658000D03*
%TD*%
D10*
%TO.C,D11*%
X180975000Y-50292000D03*
D11*
X180975000Y-52832000D03*
%TD*%
D10*
%TO.C,D21*%
X180975000Y-78232000D03*
D11*
X180975000Y-80772000D03*
%TD*%
D14*
%TO.C,U2*%
X81407000Y-74803000D03*
D15*
X81407000Y-72263000D03*
X81407000Y-69723000D03*
X81407000Y-67183000D03*
X81407000Y-64643000D03*
X81407000Y-62103000D03*
X81407000Y-59563000D03*
X81407000Y-57023000D03*
X73787000Y-57023000D03*
X73787000Y-59563000D03*
X73787000Y-62103000D03*
X73787000Y-64643000D03*
X73787000Y-67183000D03*
X73787000Y-69723000D03*
X73787000Y-72263000D03*
X73787000Y-74803000D03*
%TD*%
D16*
%TO.C,RV2*%
X115215000Y-38100000D03*
X124815000Y-38100000D03*
D10*
X117515000Y-45600000D03*
D11*
X120015000Y-45600000D03*
X122515000Y-45600000D03*
%TD*%
D10*
%TO.C,D7*%
X150495000Y-50292000D03*
D11*
X150495000Y-52832000D03*
%TD*%
D14*
%TO.C,D22*%
X186055000Y-83947000D03*
D15*
X186055000Y-76327000D03*
%TD*%
D17*
%TO.C,R1*%
X46355000Y-61849000D03*
D15*
X53975000Y-61849000D03*
%TD*%
D17*
%TO.C,R4*%
X114935000Y-48260000D03*
D15*
X114935000Y-55880000D03*
%TD*%
D14*
%TO.C,C2*%
X67564000Y-34925000D03*
D17*
X70064000Y-34925000D03*
%TD*%
%TO.C,R11*%
X145415000Y-76200000D03*
D15*
X145415000Y-83820000D03*
%TD*%
D14*
%TO.C,C1*%
X51181000Y-56769000D03*
D17*
X48681000Y-56769000D03*
%TD*%
D10*
%TO.C,D5*%
X135255000Y-50292000D03*
D11*
X135255000Y-52832000D03*
%TD*%
D17*
%TO.C,R8*%
X175895000Y-48260000D03*
D15*
X175895000Y-55880000D03*
%TD*%
D17*
%TO.C,R3*%
X63246000Y-34925000D03*
D15*
X63246000Y-42545000D03*
%TD*%
D10*
%TO.C,D2*%
X69850000Y-41402000D03*
D11*
X67310000Y-41402000D03*
%TD*%
D17*
%TO.C,R12*%
X160655000Y-76200000D03*
D15*
X160655000Y-83820000D03*
%TD*%
D14*
%TO.C,D20*%
X170815000Y-83947000D03*
D15*
X170815000Y-76327000D03*
%TD*%
D16*
%TO.C,RV1*%
X53655000Y-77343000D03*
X44055000Y-77343000D03*
D10*
X51355000Y-69843000D03*
D11*
X48855000Y-69843000D03*
X46355000Y-69843000D03*
%TD*%
D17*
%TO.C,C4*%
X73787000Y-80117000D03*
X73787000Y-78867000D03*
X73787000Y-82617000D03*
X73787000Y-83867000D03*
%TD*%
D14*
%TO.C,D12*%
X186055000Y-56007000D03*
D15*
X186055000Y-48387000D03*
%TD*%
D16*
%TO.C,RV3*%
X140055000Y-38100000D03*
X130455000Y-38100000D03*
D10*
X132755000Y-45600000D03*
D11*
X135255000Y-45600000D03*
X137755000Y-45600000D03*
%TD*%
D14*
%TO.C,D14*%
X125095000Y-83947000D03*
D15*
X125095000Y-76327000D03*
%TD*%
D14*
%TO.C,D4*%
X125095000Y-56007000D03*
D15*
X125095000Y-48387000D03*
%TD*%
D16*
%TO.C,RV10*%
X170535000Y-66040000D03*
X160935000Y-66040000D03*
D10*
X163235000Y-73540000D03*
D11*
X165735000Y-73540000D03*
X168235000Y-73540000D03*
%TD*%
D12*
%TO.C,J4*%
X91059000Y-33558000D03*
D13*
X91059000Y-44958000D03*
X91059000Y-36658000D03*
%TD*%
D16*
%TO.C,RV5*%
X170535000Y-38100000D03*
X160935000Y-38100000D03*
D10*
X163235000Y-45600000D03*
D11*
X165735000Y-45600000D03*
X168235000Y-45600000D03*
%TD*%
D12*
%TO.C,J3*%
X80264000Y-33558000D03*
D13*
X80264000Y-44958000D03*
X80264000Y-36658000D03*
%TD*%
D18*
%TO.C,J1*%
X53594000Y-46609000D03*
D19*
X47594000Y-46609000D03*
X50594000Y-51309000D03*
%TD*%
D16*
%TO.C,RV7*%
X115215000Y-66040000D03*
X124815000Y-66040000D03*
D10*
X117515000Y-73540000D03*
D11*
X120015000Y-73540000D03*
X122515000Y-73540000D03*
%TD*%
D14*
%TO.C,D10*%
X170815000Y-56007000D03*
D15*
X170815000Y-48387000D03*
%TD*%
D14*
%TO.C,D16*%
X140335000Y-83947000D03*
D15*
X140335000Y-76327000D03*
%TD*%
D17*
%TO.C,R10*%
X130175000Y-76200000D03*
D15*
X130175000Y-83820000D03*
%TD*%
D17*
%TO.C,R9*%
X114935000Y-76200000D03*
D15*
X114935000Y-83820000D03*
%TD*%
D17*
%TO.C,R7*%
X160655000Y-48260000D03*
D15*
X160655000Y-55880000D03*
%TD*%
D17*
%TO.C,R13*%
X175895000Y-76200000D03*
D15*
X175895000Y-83820000D03*
%TD*%
D17*
%TO.C,R5*%
X130175000Y-48260000D03*
D15*
X130175000Y-55880000D03*
%TD*%
D16*
%TO.C,RV9*%
X155295000Y-66040000D03*
X145695000Y-66040000D03*
D10*
X147995000Y-73540000D03*
D11*
X150495000Y-73540000D03*
X152995000Y-73540000D03*
%TD*%
D16*
%TO.C,RV6*%
X185775000Y-38100000D03*
X176175000Y-38100000D03*
D10*
X178475000Y-45600000D03*
D11*
X180975000Y-45600000D03*
X183475000Y-45600000D03*
%TD*%
D16*
%TO.C,RV8*%
X130455000Y-66040000D03*
X140055000Y-66040000D03*
D10*
X132755000Y-73540000D03*
D11*
X135255000Y-73540000D03*
X137755000Y-73540000D03*
%TD*%
D17*
%TO.C,R6*%
X145415000Y-48260000D03*
D15*
X145415000Y-55880000D03*
%TD*%
D17*
%TO.C,C3*%
X63139000Y-53340000D03*
X64389000Y-53340000D03*
X60639000Y-53340000D03*
X59389000Y-53340000D03*
%TD*%
D14*
%TO.C,U1*%
X64389000Y-64897000D03*
D15*
X64389000Y-62357000D03*
X64389000Y-59817000D03*
X64389000Y-57277000D03*
X56769000Y-57277000D03*
X56769000Y-59817000D03*
X56769000Y-62357000D03*
X56769000Y-64897000D03*
%TD*%
D14*
%TO.C,D18*%
X155575000Y-83947000D03*
D15*
X155575000Y-76327000D03*
%TD*%
D16*
%TO.C,RV11*%
X176175000Y-66040000D03*
X185775000Y-66040000D03*
D10*
X178475000Y-73540000D03*
D11*
X180975000Y-73540000D03*
X183475000Y-73540000D03*
%TD*%
D20*
%TO.C,J2*%
X53594000Y-37465000D03*
D21*
X53594000Y-34925000D03*
X51054000Y-37465000D03*
X51054000Y-34925000D03*
X48514000Y-37465000D03*
X48514000Y-34925000D03*
X45974000Y-37465000D03*
X45974000Y-34925000D03*
X43434000Y-37465000D03*
X43434000Y-34925000D03*
%TD*%
D14*
%TO.C,D6*%
X140335000Y-56007000D03*
D15*
X140335000Y-48387000D03*
%TD*%
D14*
%TO.C,D8*%
X155575000Y-56007000D03*
D15*
X155575000Y-48387000D03*
%TD*%
D10*
%TO.C,D17*%
X150495000Y-78232000D03*
D11*
X150495000Y-80772000D03*
%TD*%
D22*
%TO.C,SW1*%
X61366400Y-72593000D03*
X61341000Y-77293000D03*
X61341000Y-81993000D03*
%TD*%
D10*
%TO.C,D19*%
X165735000Y-78232000D03*
D11*
X165735000Y-80772000D03*
%TD*%
D14*
%TO.C,D1*%
X60071000Y-42545000D03*
D15*
X60071000Y-34925000D03*
%TD*%
D22*
%TO.C,SW2*%
X106045000Y-69860598D03*
X90043000Y-69860598D03*
D23*
X93040200Y-59598998D03*
X95554800Y-59598998D03*
X98044000Y-59598998D03*
X100558600Y-59598998D03*
X103047800Y-59598998D03*
X103047800Y-77899698D03*
X100558600Y-77899698D03*
X98044000Y-77899698D03*
X95554800Y-77899698D03*
X93040200Y-77899698D03*
%TD*%
D10*
%TO.C,D3*%
X120015000Y-50292000D03*
D11*
X120015000Y-52832000D03*
%TD*%
D17*
%TO.C,R2*%
X53975000Y-64897000D03*
D15*
X46355000Y-64897000D03*
%TD*%
D16*
%TO.C,RV4*%
X145695000Y-38100000D03*
X155295000Y-38100000D03*
D10*
X147995000Y-45600000D03*
D11*
X150495000Y-45600000D03*
X152995000Y-45600000D03*
%TD*%
D10*
%TO.C,D9*%
X165735000Y-50292000D03*
D11*
X165735000Y-52832000D03*
%TD*%
D10*
%TO.C,D15*%
X135255000Y-78232000D03*
D11*
X135255000Y-80772000D03*
%TD*%
M02*
