M48
; DRILL file {KiCad (6.0.0-0)} date Monday, 11 April 2022 at 21:26:15
; FORMAT={-:-/ absolute / metric / decimal}
; #@! TF.CreationDate,2022-04-11T21:26:15+01:00
; #@! TF.GenerationSoftware,Kicad,Pcbnew,(6.0.0-0)
; #@! TF.FileFunction,MixedPlating,1,2
FMAT,2
METRIC
; #@! TA.AperFunction,Plated,PTH,ViaDrill
T1C0.381
; #@! TA.AperFunction,Plated,PTH,ComponentDrill
T2C0.600
; #@! TA.AperFunction,Plated,PTH,ComponentDrill
T3C0.800
; #@! TA.AperFunction,Plated,PTH,ComponentDrill
T4C0.900
; #@! TA.AperFunction,Plated,PTH,ComponentDrill
T5C1.000
; #@! TA.AperFunction,Plated,PTH,ComponentDrill
T6C1.600
; #@! TA.AperFunction,Plated,PTH,ComponentDrill
T7C1.800
; #@! TA.AperFunction,Plated,PTH,ComponentDrill
T8C1.900
; #@! TA.AperFunction,Plated,PTH,ComponentDrill
T9C2.000
%
G90
G05
T1
X85.344Y-63.246
X85.344Y-73.025
X109.093Y-74.549
T3
X46.355Y-61.849
X46.355Y-64.897
X48.681Y-56.769
X51.181Y-56.769
X53.975Y-61.849
X53.975Y-64.897
X56.769Y-57.277
X56.769Y-59.817
X56.769Y-62.357
X56.769Y-64.897
X59.389Y-53.34
X60.071Y-34.925
X60.071Y-42.545
X60.639Y-53.34
X63.139Y-53.34
X63.246Y-34.925
X63.246Y-42.545
X64.389Y-53.34
X64.389Y-57.277
X64.389Y-59.817
X64.389Y-62.357
X64.389Y-64.897
X67.564Y-34.925
X70.064Y-34.925
X73.787Y-57.023
X73.787Y-59.563
X73.787Y-62.103
X73.787Y-64.643
X73.787Y-67.183
X73.787Y-69.723
X73.787Y-72.263
X73.787Y-74.803
X73.787Y-78.867
X73.787Y-80.117
X73.787Y-82.617
X73.787Y-83.867
X81.407Y-57.023
X81.407Y-59.563
X81.407Y-62.103
X81.407Y-64.643
X81.407Y-67.183
X81.407Y-69.723
X81.407Y-72.263
X81.407Y-74.803
X114.935Y-48.26
X114.935Y-55.88
X114.935Y-76.2
X114.935Y-83.82
X125.095Y-48.387
X125.095Y-56.007
X125.095Y-76.327
X125.095Y-83.947
X130.175Y-48.26
X130.175Y-55.88
X130.175Y-76.2
X130.175Y-83.82
X140.335Y-48.387
X140.335Y-56.007
X140.335Y-76.327
X140.335Y-83.947
X145.415Y-48.26
X145.415Y-55.88
X145.415Y-76.2
X145.415Y-83.82
X155.575Y-48.387
X155.575Y-56.007
X155.575Y-76.327
X155.575Y-83.947
X160.655Y-48.26
X160.655Y-55.88
X160.655Y-76.2
X160.655Y-83.82
X170.815Y-48.387
X170.815Y-56.007
X170.815Y-76.327
X170.815Y-83.947
X175.895Y-48.26
X175.895Y-55.88
X175.895Y-76.2
X175.895Y-83.82
X186.055Y-48.387
X186.055Y-56.007
X186.055Y-76.327
X186.055Y-83.947
T4
X67.31Y-41.402
X69.85Y-41.402
X120.015Y-50.292
X120.015Y-52.832
X120.015Y-78.232
X120.015Y-80.772
X135.255Y-50.292
X135.255Y-52.832
X135.255Y-78.232
X135.255Y-80.772
X150.495Y-50.292
X150.495Y-52.832
X150.495Y-78.232
X150.495Y-80.772
X165.735Y-50.292
X165.735Y-52.832
X165.735Y-78.232
X165.735Y-80.772
X180.975Y-50.292
X180.975Y-52.832
X180.975Y-78.232
X180.975Y-80.772
T5
X43.434Y-34.925
X43.434Y-37.465
X45.974Y-34.925
X45.974Y-37.465
X46.355Y-69.843
X48.514Y-34.925
X48.514Y-37.465
X48.855Y-69.843
X51.054Y-34.925
X51.054Y-37.465
X51.355Y-69.843
X53.594Y-34.925
X53.594Y-37.465
X93.04Y-59.599
X93.04Y-77.9
X95.555Y-59.599
X95.555Y-77.9
X98.044Y-59.599
X98.044Y-77.9
X100.559Y-59.599
X100.559Y-77.9
X103.048Y-59.599
X103.048Y-77.9
X117.515Y-45.6
X117.515Y-73.54
X120.015Y-45.6
X120.015Y-73.54
X122.515Y-45.6
X122.515Y-73.54
X132.755Y-45.6
X132.755Y-73.54
X135.255Y-45.6
X135.255Y-73.54
X137.755Y-45.6
X137.755Y-73.54
X147.995Y-45.6
X147.995Y-73.54
X150.495Y-45.6
X150.495Y-73.54
X152.995Y-45.6
X152.995Y-73.54
X163.235Y-45.6
X163.235Y-73.54
X165.735Y-45.6
X165.735Y-73.54
X168.235Y-45.6
X168.235Y-73.54
X178.475Y-45.6
X178.475Y-73.54
X180.975Y-45.6
X180.975Y-73.54
X183.475Y-45.6
X183.475Y-73.54
T6
X47.594Y-46.609
X50.594Y-51.309
X53.594Y-46.609
T7
X44.055Y-77.343
X53.655Y-77.343
X115.215Y-38.1
X115.215Y-66.04
X124.815Y-38.1
X124.815Y-66.04
X130.455Y-38.1
X130.455Y-66.04
X140.055Y-38.1
X140.055Y-66.04
X145.695Y-38.1
X145.695Y-66.04
X155.295Y-38.1
X155.295Y-66.04
X160.935Y-38.1
X160.935Y-66.04
X170.535Y-38.1
X170.535Y-66.04
X176.175Y-38.1
X176.175Y-66.04
X185.775Y-38.1
X185.775Y-66.04
T8
X61.341Y-77.293
X61.341Y-81.993
X61.366Y-72.593
T9
X90.043Y-69.861
X106.045Y-69.861
T2
G00X80.764Y-33.558
M15
G01X79.764Y-33.558
M16
G05
G00X80.764Y-36.658
M15
G01X79.764Y-36.658
M16
G05
G00X80.764Y-44.958
M15
G01X79.764Y-44.958
M16
G05
G00X91.559Y-33.558
M15
G01X90.559Y-33.558
M16
G05
G00X91.559Y-36.658
M15
G01X90.559Y-36.658
M16
G05
G00X91.559Y-44.958
M15
G01X90.559Y-44.958
M16
G05
G00X102.354Y-33.558
M15
G01X101.354Y-33.558
M16
G05
G00X102.354Y-36.658
M15
G01X101.354Y-36.658
M16
G05
G00X102.354Y-44.958
M15
G01X101.354Y-44.958
M16
G05
T0
M30
